<?xml version="1.0" encoding="UTF-8" standalone="no"?><!DOCTYPE svg PUBLIC "-//W3C//DTD SVG 1.1//EN" "http://www.w3.org/Graphics/SVG/1.1/DTD/svg11.dtd"><svg width="100%" height="100%" viewBox="0 0 4692 3363" version="1.1" xmlns="http://www.w3.org/2000/svg" xmlns:xlink="http://www.w3.org/1999/xlink" xml:space="preserve" xmlns:serif="http://www.serif.com/" style="fill-rule:evenodd;clip-rule:evenodd;stroke-linejoin:round;stroke-miterlimit:1.41421;"><path d="M3477.78,2881.33c-4.833,0 -8.808,-3.979 -8.808,-8.812l0,-586.092c0,-4.833 3.975,-8.812 8.808,-8.812c4.834,0 8.813,3.979 8.813,8.812l0,586.092c0,4.833 -3.979,8.812 -8.813,8.812Z" style="fill:#231f20;fill-rule:nonzero;"/><path d="M4682.04,2990.94l-4673.25,0c-4.8,-0.092 -8.721,-4.013 -8.813,-8.813c0,-4.833 3.979,-8.808 8.813,-8.808l4673.25,0c4.833,0 8.808,3.975 8.808,8.808c-0.092,4.8 -4.012,8.721 -8.808,8.813Z" style="fill:#d1d3d4;fill-rule:nonzero;"/><path d="M4118.33,293.433c0,-69.537 -56.458,-125.991 -125.996,-125.991l-3315.14,0c-69.538,0 -125.996,56.454 -125.996,125.991l0,2274.76c0,69.537 56.458,125.996 125.996,125.996l3315.14,0c69.538,0 125.996,-56.459 125.996,-125.996l0,-2274.76Z" style="fill:#fff;"/><path d="M3992.33,2703l-3315.31,0c-73.888,-0.096 -134.629,-60.917 -134.629,-134.804l0,-2274.76c0,-73.883 60.741,-134.708 134.629,-134.804l3315.31,0c73.917,0.096 134.709,60.888 134.804,134.804l0.001,2274.76c-0.096,73.917 -60.888,134.708 -134.805,134.804Zm-3315.31,-2526.75c-64.221,0.096 -117.009,52.967 -117.009,117.183l0,2274.76c0,64.221 52.788,117.087 117.009,117.183l3315.31,0c64.284,0 117.184,-52.896 117.184,-117.183l0,-2274.76c0,-64.283 -52.9,-117.183 -117.184,-117.183l-3315.31,0Z" style="fill:#231f20;fill-rule:nonzero;"/><rect x="683.013" y="343.479" width="3303.51" height="2174.85" style="fill:#067eed;"/><g><path d="M2863.01,1092.56l-447.975,-134.392c-6.271,-1.884 -12.958,-1.884 -19.233,0l-447.983,134.391c-14.15,4.246 -23.842,17.275 -23.842,32.05l0,492.78c0,64.095 25.946,129.708 77.121,195.012c39.083,49.875 93.154,99.963 160.708,148.863c113.488,82.15 225.242,132.541 229.942,134.645c4.35,1.95 9.008,2.925 13.671,2.925c4.662,0 9.325,-0.975 13.67,-2.925c4.7,-2.104 116.45,-52.495 229.938,-134.645c67.554,-48.9 121.625,-98.988 160.712,-148.863c51.171,-65.304 77.117,-130.917 77.117,-195.012l0,-492.78c0,-14.775 -9.687,-27.804 -23.846,-32.05Z" style="fill:none;stroke:#fff;stroke-width:17.38px;"/><path d="M2921.64,1036.8l-505.375,-151.612c-7.075,-2.125 -14.619,-2.125 -21.698,0l-505.385,151.612c-15.963,4.789 -26.896,19.488 -26.896,36.156l0,555.921c0,72.308 29.27,146.328 87.002,220c44.092,56.265 105.091,112.771 181.301,167.936c128.029,92.676 254.102,149.525 259.404,151.899c4.908,2.199 10.163,3.299 15.423,3.299c5.26,0 10.52,-1.1 15.422,-3.299c5.303,-2.374 131.372,-59.223 259.4,-151.899c76.211,-55.165 137.21,-111.671 181.305,-167.936c57.728,-73.672 86.998,-147.692 86.998,-220l0,-555.921c0,-16.668 -10.928,-31.367 -26.901,-36.156Z" style="fill:none;stroke:#fff;stroke-width:19.6px;"/><path d="M2289.34,1789.89c-3.177,-0.697 -5.939,-2.705 -7.575,-5.583l-35.41,-62.314c-15.702,7.168 -34.13,12.222 -45.74,1.366c-10.946,-10.216 -7.68,-27.744 -3.932,-39.48l-54.356,-33.158c-2.967,-1.809 -4.963,-4.868 -5.432,-8.315c-0.468,-3.447 0.641,-6.927 3.019,-9.465l30.167,-32.19c2.44,-2.599 5.934,-3.931 9.48,-3.613l61.115,5.544c20.032,-29.662 45.879,-63.485 75.464,-98.761l-198.627,-107.965c-3.042,-1.656 -5.187,-4.591 -5.834,-7.996c-0.647,-3.406 0.261,-6.923 2.489,-9.582l46.353,-55.433c2.924,-3.515 7.656,-4.96 12.051,-3.704l247.691,70.837c42.197,-42.27 198.08,-193.223 237.737,-156.238c38.577,36.044 -89.758,190.48 -137.532,245.235l91.582,241.381c1.526,4.025 0.69,8.574 -2.184,11.795l-50.277,56.412c-2.405,2.688 -5.919,4.11 -9.521,3.834c-3.583,-0.272 -6.859,-2.217 -8.814,-5.246l-127.103,-196.366c-32.472,31.339 -63.934,59.163 -91.894,81.235l10.929,64.935c0.529,3.143 -0.264,6.354 -2.182,8.891l-29.957,39.623c-2.346,3.1 -6.089,4.823 -9.973,4.567c-0.595,-0.036 -1.172,-0.122 -1.734,-0.246Zm-35.864,-94.409c3.094,0.679 5.897,2.621 7.582,5.584l32.127,56.543l16.359,-21.627l-11.243,-66.805c-0.702,-4.202 0.955,-8.449 4.318,-11.062c31.434,-24.363 67.876,-56.706 105.392,-93.538c4.411,-4.333 11.451,-4.419 15.965,-0.219c0.704,0.649 1.607,1.653 2.128,2.458l126.304,195.134l35.51,-39.845l-91.555,-241.321c-1.518,-4.003 -0.701,-8.522 2.131,-11.739c114.606,-130.199 150.009,-206.593 143.489,-218.559c-12.142,-5.536 -86.724,35.798 -210.116,160.718c-2.976,3.009 -7.379,4.128 -11.408,2.993l-247.029,-70.645l-32.47,38.827l198.694,107.999c3.067,1.669 5.214,4.625 5.849,8.054c0.634,3.43 -0.31,6.96 -2.571,9.612c-34.807,40.805 -64.831,79.932 -86.823,113.152c-2.349,3.546 -6.451,5.516 -10.686,5.135l-62.33,-5.655l-16.58,17.699l50.302,30.684c4.805,2.937 6.798,8.906 4.729,14.138c-6.898,17.388 -5.134,22.954 -4.926,23.488c0.165,-0.228 7.175,1.453 28.978,-10.124c2.499,-1.333 5.29,-1.648 7.88,-1.079Z" style="fill:#fff;fill-rule:nonzero;"/></g><path d="M2865.44,3060.01l-1061.52,0l120,-365.821l821.691,0l119.83,365.821Z" style="fill:#fff;fill-rule:nonzero;"/><path d="M2865.44,3069.18l-1061.52,0c-2.946,-0.025 -5.704,-1.471 -7.4,-3.875c-1.638,-2.367 -2.096,-5.358 -1.234,-8.104l120,-365.825c1.271,-3.675 4.746,-6.159 8.634,-6.167l821.516,0c3.921,-0.104 7.459,2.425 8.634,6.167l120.004,365.825c1.05,2.725 0.579,5.812 -1.233,8.104c-1.659,2.45 -4.442,3.912 -7.4,3.875Zm-1049.01,-17.621l1036.5,0l-114.012,-348.554l-808.3,0l-114.188,348.554Z" style="fill:#231f20;fill-rule:nonzero;"/><path d="M3004.65,3111.47c0,-28.396 -23.054,-51.455 -51.454,-51.455l-1237.03,0c-28.399,0 -51.458,23.059 -51.458,51.455l0,0.179c0,28.396 23.058,51.454 51.458,51.454l1237.03,0c28.4,0 51.454,-23.058 51.454,-51.454l0,-0.179Z" style="fill:#fff;"/><path d="M2953.19,3172.09l-1236.86,0c-1.087,0.058 -2.179,0.087 -3.266,0.087c-33.254,0 -60.621,-27.363 -60.621,-60.617c0,-33.254 27.367,-60.62 60.621,-60.62c1.087,0 2.179,0.029 3.266,0.087l1236.86,0c1.087,-0.058 2.179,-0.087 3.266,-0.087c33.255,0 60.617,27.366 60.617,60.62c0,33.255 -27.363,60.617 -60.617,60.617c-1.087,0 -2.179,-0.029 -3.266,-0.087Zm-1236.86,-102.913c-0.912,-0.058 -1.82,-0.087 -2.733,-0.087c-23.3,0 -42.471,19.17 -42.471,42.47c0,23.296 19.171,42.467 42.471,42.467c0.913,0 1.821,-0.029 2.733,-0.087l1236.86,0c0.908,0.058 1.821,0.087 2.733,0.087c23.3,0 42.471,-19.171 42.471,-42.467c0,-23.3 -19.171,-42.47 -42.471,-42.47c-0.913,0 -1.825,0.029 -2.733,0.087l-1236.86,0Z" style="fill:#231f20;fill-rule:nonzero;"/><path d="M1835.81,2963.1c17.62,-9.163 936.229,-176.217 936.229,-176.217l-30.134,-91.808l-821.691,0l-84.405,268.025Z" style="fill:#231f20;fill-rule:nonzero;"/><path d="M1835.63,2972.08c-2.075,0.025 -4.091,-0.729 -5.637,-2.116c-2.738,-2.33 -3.788,-6.109 -2.642,-9.517l84.584,-268.904c1.087,-3.65 4.47,-6.171 8.279,-6.167l821.691,0c3.796,0.054 7.146,2.55 8.284,6.167l30.133,91.808c1.033,2.296 1.033,4.929 0,7.225c-1.367,2.142 -3.517,3.659 -5.992,4.229c-251.987,45.992 -910.679,167.405 -933.941,176.217c-1.438,0.833 -3.1,1.2 -4.759,1.058Zm91.105,-269.083l-77.888,247.758c114.013,-25.375 751.383,-142.204 911.563,-171.633l-25.021,-76.125l-808.654,0Z" style="fill:#231f20;fill-rule:nonzero;"/><path d="M3879.55,1508.26c-2.783,0.058 -5.425,-1.263 -7.046,-3.525c-3.525,-4.584 -83,-113.484 -83,-385.913l0,-966.187c0.096,-4.796 4.013,-8.717 8.813,-8.813c4.833,0 8.808,3.979 8.808,8.813l0,966.187c0,266.617 78.596,374.283 79.475,375.342c2.804,3.891 2.021,9.379 -1.762,12.333c-1.517,1.154 -3.38,1.775 -5.288,1.763Z" style="fill:#231f20;fill-rule:nonzero;"/><rect x="313.488" y="2035.85" width="169.696" height="1316.86" style="fill:#fff;"/><path d="M483.358,3361.34l-169.871,0c-4.833,0 -8.812,-3.979 -8.812,-8.813l0,-1316.68c0,-4.833 3.979,-8.808 8.813,-8.808l169.87,0c4.834,0 8.813,3.975 8.813,8.808l0,1316.68c0,4.834 -3.979,8.813 -8.813,8.813Zm-161.062,-17.621l152.25,0l0,-1299.06l-152.25,0l0,1299.06Z" style="fill:#231f20;fill-rule:nonzero;"/><rect x="1353.33" y="2035.85" width="169.696" height="1316.86" style="fill:#fff;"/><path d="M1523.2,3361.34l-169.871,0c-4.833,0 -8.812,-3.979 -8.812,-8.813l0,-1316.68c0,-4.833 3.979,-8.808 8.812,-8.808l169.871,0c4.834,0 8.813,3.975 8.813,8.808l0,1316.68c0,4.834 -3.979,8.813 -8.813,8.813Zm-161.058,-17.621l152.25,0l0,-1299.06l-152.25,0l0,1299.06Z" style="fill:#231f20;fill-rule:nonzero;"/><rect x="148.196" y="2134.53" width="1506.29" height="452.167" style="fill:#fff;"/><path d="M1654.48,2134.53l0,452.171l-1506.29,0l0,-452.171l1506.29,0m0,-17.621l-1506.29,0c-9.667,0 -17.621,7.955 -17.621,17.621l0,452.171c0,9.667 7.954,17.621 17.621,17.621l1506.29,0c9.671,0 17.625,-7.954 17.625,-17.621l0,-452.171c0,-9.666 -7.954,-17.621 -17.625,-17.621Z" style="fill:#231f20;fill-rule:nonzero;"/><path d="M692.35,2586.7l-231.017,0l-285.471,-451.992l231.017,0l285.471,451.992Z" style="fill:#d1d3d4;fill-rule:nonzero;"/><path d="M1159.5,2586.7l-231.017,0l-285.471,-451.992l231.021,0l285.467,451.992Z" style="fill:#d1d3d4;fill-rule:nonzero;"/><path d="M1626.64,2586.7l-231.017,0l-285.467,-451.992l231.017,0l285.467,451.992Z" style="fill:#d1d3d4;fill-rule:nonzero;"/><rect x="148.196" y="2766.62" width="1478.62" height="146.083" style="fill:#fff;"/><path d="M1626.64,2921.51l-1478.45,0c-4.833,0 -8.808,-3.979 -8.808,-8.812l0,-146.079c0,-4.834 3.975,-8.813 8.808,-8.813l1478.45,0c4.833,0 8.812,3.979 8.812,8.813l0,146.079c0,4.833 -3.979,8.812 -8.812,8.812Zm-1469.63,-17.62l1460.83,-0.001l0,-128.462l-1460.83,0l0,128.463Z" style="fill:#231f20;fill-rule:nonzero;"/><path d="M4534.54,3205.39l-517.367,0l24.317,-82.292l4.583,-15.683l28.371,-95.509l13.921,-47.229l29.958,-101.321l6.167,-20.616l32.95,-111.371l3.175,-10.746l29.954,-101.325l16.917,-57.096l25.374,-85.637l28.9,-97.98l27.842,0l28.9,97.98l13.746,45.812l28.546,96.921l12.862,42.996l17.271,58.329l10.042,33.654l32.25,109.079l9.162,31.013l20.971,70.308l6.342,21.675l35.771,121.063l5.462,18.679l23.613,79.296Z" style="fill:#fff;fill-rule:nonzero;"/><path d="M4289.63,2378.59l28.9,97.979l13.746,45.812l28.546,96.921l12.862,42.996l17.621,58.329l10.046,33.833l32.246,108.9l9.162,31.013l20.796,70.487l6.342,21.675l35.245,121.059l5.463,18.679l23.438,79.296l-516.842,0l24.317,-82.292l4.583,-15.683l28.371,-95.509l13.921,-47.225l29.958,-101.325l6.167,-20.616l32.949,-111.367l2.996,-10.925l29.959,-101.325l17.621,-57.096l25.375,-85.637l28.9,-97.98l27.841,0m0,-17.62l-27.841,0c-7.746,0.079 -14.575,5.254 -16.742,12.687l-29.075,97.8l-25.375,85.817l-16.742,57.096l-30.133,101.145l-3.171,10.75l-33.479,111.367l-6.167,20.796l-29.958,101.321l-13.921,47.05l-28.371,95.687l-4.583,15.684l-24.317,82.291c-1.55,5.321 -0.504,11.071 2.821,15.504c3.325,4.438 8.554,7.05 14.096,7.05l517.192,0c0.237,0.009 0.475,0.017 0.708,0.017c9.667,0 17.625,-7.958 17.625,-17.625c0,-1.675 -0.242,-3.337 -0.713,-4.946l-23.433,-79.3l-5.642,-18.675l-35.241,-121.237l-6.346,-21.5l-20.967,-70.484l-9.166,-30.837l-32.071,-109.079l-10.042,-33.834l-17.621,-58.15l-12.866,-43.175l-28.546,-96.741l-13.746,-45.992l-28.896,-97.8c-2.254,-7.75 -9.558,-13.008 -17.625,-12.687l0.354,0Z" style="fill:#231f20;fill-rule:nonzero;"/><path d="M4606.79,3224.42c0,-10.5 -8.529,-19.029 -19.029,-19.029l-623.805,0c-10.504,0 -19.029,8.529 -19.029,19.029l0,35.246c0,10.504 8.525,19.029 19.029,19.029l623.805,0c10.5,0 19.029,-8.525 19.029,-19.029l0,-35.246Z" style="fill:#fff;"/><path d="M4587.75,3287.51l-623.804,0c-15.275,0 -27.842,-12.571 -27.842,-27.841l0,-35.246c0,-15.271 12.567,-27.842 27.842,-27.842l623.804,0c15.271,0 27.842,12.571 27.842,27.842l0,35.246c0,15.27 -12.571,27.841 -27.842,27.841Zm-623.804,-73.483c-5.608,0 -10.221,4.613 -10.221,10.221l0,35.241c0,5.609 4.613,10.221 10.221,10.221l623.804,0c5.604,0 10.217,-4.612 10.217,-10.221l0,-35.241c0,-5.608 -4.613,-10.221 -10.217,-10.221l-623.804,0Z" style="fill:#231f20;fill-rule:nonzero;"/><path d="M4505.46,3107.42l-459.391,0l28.37,-95.509l13.921,-47.229l374.988,0l6.341,21.675l35.771,121.063Z" style="fill:#d1d3d4;fill-rule:nonzero;"/><path d="M4433.21,2863.36l-314.896,0l6.167,-20.616l32.95,-111.371l3.175,-10.746l230.313,0l10.041,33.654l32.25,109.079Z" style="fill:#d1d3d4;fill-rule:nonzero;"/><path d="M4360.79,2619.3l-170.225,0l16.916,-57.096l25.375,-85.637l85.642,0l13.746,45.812l28.546,96.921Z" style="fill:#d1d3d4;fill-rule:nonzero;"/><path d="M3591.62,169.729l623.625,745.042c2.508,2.833 6.117,4.462 9.9,4.462c7.254,0 13.217,-5.966 13.217,-13.216c0,-0.788 -0.071,-1.575 -0.209,-2.35c-14.137,-63.621 -34.925,-125.579 -62.029,-184.85l-505.912,-593.667l-64.142,7.929c-11.2,1.338 -19.725,10.942 -19.725,22.221c0,5.279 1.867,10.396 5.275,14.429Z" style="fill:#fff;fill-rule:nonzero;"/><path d="M4225.13,928.338c-6.417,-0.059 -12.492,-2.967 -16.563,-7.93l-623.804,-745.037c-4.745,-5.629 -7.354,-12.758 -7.354,-20.117c0,-15.771 11.959,-29.183 27.621,-30.987l64.142,-7.93c2.95,-0.316 5.871,0.88 7.754,3.171l505.912,593.671c0.455,0.558 0.867,1.146 1.234,1.763c27.287,59.916 48.254,122.52 62.558,186.787c0.321,1.504 0.479,3.042 0.479,4.583c0,12.063 -9.912,22 -21.979,22.025Zm-626.796,-764.245l623.8,745.037c1.217,1.542 3.383,1.992 5.113,1.058c1.775,-0.854 2.729,-2.837 2.291,-4.758c-14.083,-62.533 -34.512,-123.467 -60.971,-181.854l-501.508,-589.088l-59.387,7.225c-4.967,0.696 -9.205,3.992 -11.1,8.634c-1.746,4.658 -0.871,9.908 2.291,13.746l-0.529,0Z" style="fill:#231f20;fill-rule:nonzero;"/><path d="M3670.21,125.15l505.912,593.667c0,0 192.25,-231.546 153.133,-420.45c-39.12,-188.9 -209.52,-313.488 -397.895,-284.938c-188.376,28.546 -261.151,111.721 -261.151,111.721Z" style="fill:#fff;fill-rule:nonzero;"/><path d="M4176.13,727.629c-2.592,0 -5.054,-1.162 -6.696,-3.171l-505.912,-594.2c-2.809,-3.283 -2.809,-8.17 0,-11.454c2.996,-3.525 76.3,-85.991 266.083,-114.716c189.783,-28.721 367.763,96.566 408.292,291.987c39.65,190.842 -147.142,418.163 -155.071,427.854c-1.642,2.009 -4.1,3.175 -6.696,3.171l0,0.529Zm-493.4,-601.954l493.4,579.221c33.129,-42.642 178.683,-241.942 144.85,-405.296c-38.592,-186.083 -205.642,-305.733 -387.675,-278.067c-156.3,23.967 -231.017,85.467 -251.104,104.142l0.529,0Z" style="fill:#231f20;fill-rule:nonzero;"/><path d="M4197.63,567.45c-1.221,0.242 -2.479,0.242 -3.7,0c-3.092,-1.392 -5.092,-4.483 -5.092,-7.875c0,-1.3 0.296,-2.583 0.863,-3.758c50.791,-109.429 64.887,-232.404 40.175,-350.492c-0.196,-0.746 -0.292,-1.517 -0.292,-2.292c0,-4.991 4.108,-9.1 9.104,-9.1c4.134,0 7.771,2.813 8.809,6.813c26.5,122.046 12.004,249.496 -41.234,362.475c-1.846,2.921 -5.191,4.562 -8.633,4.229Z" style="fill:#d1d3d4;fill-rule:nonzero;"/><path d="M4143.35,680.404l78.417,-67.667l54.096,60.263l-78.942,83.529l-53.571,-76.125Z" style="fill:#fff;fill-rule:nonzero;"/><path d="M4196.92,764.633c-2.609,-0.225 -4.992,-1.579 -6.521,-3.7l-52.867,-76.125c-2.579,-3.675 -1.879,-8.779 1.588,-11.629l76.829,-67.137c3.441,-3.25 8.891,-3.25 12.337,0l54.096,60.087c3.038,3.396 3.038,8.588 0,11.984l-78.946,83.524c-1.616,1.917 -4.008,3.013 -6.516,2.996Zm-41.767,-83.35l42.646,60.617l66.079,-70.483l-42.817,-47.754l-65.908,57.62Z" style="fill:#231f20;fill-rule:nonzero;"/><path d="M4135.07,518.813c-1.221,0.241 -2.479,0.241 -3.7,0c-4.392,-1.988 -6.375,-7.23 -4.404,-11.63c54.079,-114.658 57.85,-246.858 10.395,-364.412c-2.037,-4.358 -0.229,-9.617 4.055,-11.808c1.208,-0.592 2.537,-0.9 3.883,-0.9c3.367,0 6.45,1.929 7.921,4.954c49.287,122.071 45.516,259.329 -10.396,378.508c-1.384,3.075 -4.388,5.121 -7.754,5.288Z" style="fill:#d1d3d4;fill-rule:nonzero;"/><path d="M551.2,1351.08c-0.321,0.034 -0.646,0.05 -0.967,0.05c-4.862,0 -8.866,-4 -8.866,-8.862c0,-4.496 3.425,-8.317 7.895,-8.809c10.925,-2.291 1103.46,-251.108 1427.35,-1169.01c1.571,-4.521 6.559,-6.975 11.1,-5.463c4.546,1.65 6.988,6.688 5.463,11.275c-326.35,927.421 -1428.23,1178 -1439.33,1180.64l-2.646,0.179Z" style="fill:#231f20;fill-rule:nonzero;"/><path d="M2343.31,567.979c-11.751,0 -23.205,0 -34.363,0c-661.688,-23.437 -1198.27,-389.083 -1203.73,-392.787c-2.408,-1.596 -3.858,-4.305 -3.858,-7.192c0,-1.779 0.545,-3.513 1.57,-4.967c1.638,-2.416 4.375,-3.871 7.296,-3.871c1.8,0 3.558,0.55 5.038,1.58c5.287,3.704 537.808,366.354 1194.21,389.612c513.488,17.625 853.059,-383.971 856.404,-387.671c3.171,-3.666 8.771,-4.141 12.513,-1.058c2,1.637 3.162,4.096 3.162,6.683c0,2.075 -0.745,4.084 -2.104,5.65c-3.35,3.175 -333.05,394.021 -836.141,394.021Z" style="fill:#231f20;fill-rule:nonzero;"/><path d="M3018.92,729.392c-5.225,0.262 -10.458,0.262 -15.684,0c-101.854,-10.575 -176.216,-111.721 -213.395,-292.342c-17.4,-88.467 -26.313,-178.392 -26.609,-268.554c0,-4.834 3.975,-8.809 8.809,-8.809c4.862,0.096 8.812,4.121 8.812,8.988c0,5.108 -3.879,519.304 224.146,543.271c35.417,3.871 70.808,-7.988 96.742,-32.425c131.808,-118.063 135.508,-507.146 135.508,-511.025c0,-4.834 3.979,-8.809 8.813,-8.809c4.833,0 8.812,3.975 8.812,8.809c0,0.058 0,0.121 -0.004,0.179c0,16.208 -3.875,400.712 -140.971,523.887c-25.842,23.859 -59.808,37.03 -94.979,36.83Z" style="fill:#231f20;fill-rule:nonzero;"/></svg>